<svg width="271" height="287" viewBox="0 0 271 287" fill="none" xmlns="http://www.w3.org/2000/svg">
<path fill-rule="evenodd" clip-rule="evenodd" d="M35.7803 0.79837C33.2232 -0.29231 30.44 1.31457 30.106 4.07443L29.2562 11.0966C29.1177 12.2408 28.5331 13.2612 27.6339 13.9283L22.0962 18.0364C19.8126 19.7304 19.9099 23.2853 22.2878 25.0404L27.3721 28.7929C28.3853 29.5407 29.0486 30.6896 29.1896 31.9409L29.8973 38.2203C30.2282 41.1572 33.2583 43.0189 35.8671 41.8883L42.1937 39.1466C43.221 38.7014 44.397 38.7053 45.4571 39.1575L51.9634 41.9326C54.5205 43.0233 57.3037 41.4164 57.6377 38.6565L58.4875 31.6344C58.626 30.4902 59.2106 29.4698 60.1098 28.8027L65.6475 24.6946C67.9311 23.0006 67.8338 19.4456 65.4559 17.6906L60.3715 13.938C59.3584 13.1902 58.6951 12.0413 58.554 10.79L57.8464 4.51059C57.5154 1.57373 54.4854 -0.287938 51.8766 0.842667L45.55 3.58442C44.5227 4.02962 43.3467 4.02567 42.2865 3.57347L35.7803 0.79837ZM103.289 36.9988C100.785 33.7877 95.9647 33.7877 93.4609 36.9988L87.0904 45.1692C86.0523 46.5006 84.5276 47.3549 82.8592 47.5399L72.5845 48.6793C68.3475 49.1492 65.8076 53.6664 67.5804 57.5792L71.3707 65.9454C72.126 67.6125 72.126 69.5288 71.3707 71.1959L67.5804 79.5621C65.8076 83.4749 68.3475 87.9922 72.5845 88.462L82.8592 89.6015C84.5276 89.7865 86.0523 90.6407 87.0904 91.9721L93.4609 100.142C95.9647 103.354 100.785 103.354 103.289 100.142L109.66 91.9721C110.698 90.6407 112.222 89.7865 113.891 89.6015L124.166 88.462C128.403 87.9922 130.942 83.4749 129.17 79.5621L125.379 71.1959C124.624 69.5288 124.624 67.6125 125.379 65.9454L129.17 57.5792C130.942 53.6664 128.403 49.1492 124.166 48.6793L113.891 47.5399C112.222 47.3549 110.698 46.5006 109.66 45.1692L103.289 36.9988Z" fill="#4A47FF"/>
<path fill-rule="evenodd" clip-rule="evenodd" d="M30.1059 4.07443C30.4399 1.31456 33.2231 -0.292318 35.7802 0.798362L42.2864 3.57346C43.3466 4.02566 44.5226 4.02961 45.5499 3.58441L51.8764 0.842659C54.4853 -0.287946 57.5153 1.57372 57.8463 4.51058L58.5539 10.79C58.695 12.0413 59.3583 13.1902 60.3714 13.938L65.4558 17.6906C67.8337 19.4456 67.9309 23.0006 65.6474 24.6946L60.1097 28.8027C59.2105 29.4698 58.6259 30.4901 58.4874 31.6344L57.6376 38.6565C57.3036 41.4164 54.5204 43.0233 51.9633 41.9326L45.457 39.1575C44.3969 38.7053 43.2209 38.7014 42.1936 39.1466L35.867 41.8883C33.2582 43.0189 30.2281 41.1572 29.8972 38.2203L29.1895 31.9409C29.0485 30.6896 28.3852 29.5407 27.372 28.7929L22.2877 25.0404C19.9098 23.2853 19.8125 19.7304 22.0961 18.0364L27.6338 13.9283C28.533 13.2612 29.1176 12.2408 29.2561 11.0965L30.1059 4.07443Z" fill="#4A47FF"/>
<path fill-rule="evenodd" clip-rule="evenodd" d="M30.1059 4.07443C30.4399 1.31456 33.2231 -0.292318 35.7802 0.798362L42.2864 3.57346C43.3466 4.02566 44.5226 4.02961 45.5499 3.58441L51.8764 0.842659C54.4853 -0.287946 57.5153 1.57372 57.8463 4.51058L58.5539 10.79C58.695 12.0413 59.3583 13.1902 60.3714 13.938L65.4558 17.6906C67.8337 19.4456 67.9309 23.0006 65.6474 24.6946L60.1097 28.8027C59.2105 29.4698 58.6259 30.4901 58.4874 31.6344L57.6376 38.6565C57.3036 41.4164 54.5204 43.0233 51.9633 41.9326L45.457 39.1575C44.3969 38.7053 43.2209 38.7014 42.1936 39.1466L35.867 41.8883C33.2582 43.0189 30.2281 41.1572 29.8972 38.2203L29.1895 31.9409C29.0485 30.6896 28.3852 29.5407 27.372 28.7929L22.2877 25.0404C19.9098 23.2853 19.8125 19.7304 22.0961 18.0364L27.6338 13.9283C28.533 13.2612 29.1176 12.2408 29.2561 11.0965L30.1059 4.07443Z" fill="#4A47FF"/>
<path fill-rule="evenodd" clip-rule="evenodd" d="M101.277 50.3396C102.155 49.1583 103.845 49.1583 104.723 50.3396L106.957 53.3451C107.321 53.8349 107.856 54.1491 108.441 54.2172L112.045 54.6364C113.53 54.8092 114.421 56.4709 113.8 57.9103L112.47 60.9879C112.205 61.6012 112.205 62.3061 112.47 62.9193L113.8 65.9969C114.421 67.4363 113.53 69.098 112.045 69.2709L108.441 69.6901C107.856 69.7581 107.321 70.0723 106.957 70.5621L104.723 73.5677C103.845 74.7489 102.155 74.7489 101.277 73.5677L99.0425 70.5621C98.6785 70.0723 98.1438 69.7581 97.5587 69.6901L93.9554 69.2709C92.4695 69.098 91.5788 67.4363 92.2005 65.9969L93.5297 62.9193C93.7946 62.3061 93.7946 61.6012 93.5297 60.9879L92.2005 57.9103C91.5788 56.4709 92.4695 54.8092 93.9554 54.6364L97.5587 54.2172C98.1438 54.1491 98.6785 53.8349 99.0425 53.3451L101.277 50.3396Z" fill="white"/>
<path fill-rule="evenodd" clip-rule="evenodd" d="M101.277 50.3396C102.155 49.1583 103.845 49.1583 104.723 50.3396L106.957 53.3451C107.321 53.8349 107.856 54.1491 108.441 54.2172L112.045 54.6364C113.53 54.8092 114.421 56.4709 113.8 57.9103L112.47 60.9879C112.205 61.6012 112.205 62.3061 112.47 62.9193L113.8 65.9969C114.421 67.4363 113.53 69.098 112.045 69.2709L108.441 69.6901C107.856 69.7581 107.321 70.0723 106.957 70.5621L104.723 73.5677C103.845 74.7489 102.155 74.7489 101.277 73.5677L99.0425 70.5621C98.6785 70.0723 98.1438 69.7581 97.5587 69.6901L93.9554 69.2709C92.4695 69.098 91.5788 67.4363 92.2005 65.9969L93.5297 62.9193C93.7946 62.3061 93.7946 61.6012 93.5297 60.9879L92.2005 57.9103C91.5788 56.4709 92.4695 54.8092 93.9554 54.6364L97.5587 54.2172C98.1438 54.1491 98.6785 53.8349 99.0425 53.3451L101.277 50.3396Z" fill="white"/>
<path d="M49.6633 172.039V123.993C46.1781 123.993 41.8218 123.993 41.8218 118.765C41.8218 113.537 47.9207 113.537 49.6633 113.537H112.396C113.821 113.537 120.238 113.537 120.238 118.765C120.238 123.993 112.396 123.993 112.396 123.993V172.038L159.825 258.992C162.918 264.661 162.792 271.541 159.496 277.094C156.2 282.646 150.22 286.051 143.762 286.051H18.297C11.8393 286.051 5.85986 282.646 2.56344 277.094C-0.732986 271.541 -0.85813 264.661 2.23415 258.992L49.6633 172.039Z" fill="#F29F05"/>
<path fill-rule="evenodd" clip-rule="evenodd" d="M162.072 16.5915C168.811 9.85231 179.738 9.85231 186.477 16.5915L200.354 30.4687C207.735 37.8497 219.702 37.8497 227.083 30.4687L240.96 16.5915C247.7 9.85231 258.626 9.85231 265.365 16.5915C272.104 23.3307 272.104 34.2571 265.365 40.9963L251.488 54.8735C244.107 62.2545 244.107 74.2215 251.488 81.6025L265.365 95.4797C272.104 102.219 272.104 113.145 265.365 119.884C258.626 126.624 247.7 126.624 240.96 119.884L227.083 106.007C219.702 98.6263 207.735 98.6263 200.354 106.007L186.477 119.884C179.738 126.624 168.811 126.624 162.072 119.884C155.333 113.145 155.333 102.219 162.072 95.4797L175.949 81.6025C183.33 74.2215 183.33 62.2545 175.949 54.8735L162.072 40.9963C155.333 34.2571 155.333 23.3307 162.072 16.5915Z" fill="#06F172"/>
<path d="M265.633 197.214C263.395 204.687 260.633 210.011 257.593 214.083C253.338 220.465 248.589 225.12 245.003 228.144C240.202 232.192 239.474 238.755 238.932 243.643C238.622 246.437 238.372 248.683 237.457 249.598C236.09 250.965 225.064 251.59 214.878 251.47C209.783 251.53 204.477 251.404 200.273 251.092C198.61 250.969 197.12 250.816 195.884 250.635C193.994 250.357 192.697 250.012 192.284 249.598C191.369 248.683 191.119 246.437 190.809 243.643C190.267 238.755 189.539 232.192 184.738 228.144C181.154 225.121 176.408 220.47 172.154 214.093C169.112 210.019 166.346 204.693 164.106 197.214C162.612 192.226 161.943 187.069 162.006 181.928C161.996 181.159 162.001 180.389 162.02 179.618C162.007 179.138 162 178.656 162 178.174C162 177.928 162.002 177.683 162.005 177.438C162.349 148.424 182.993 125.024 212.981 125.024C213.613 125.024 214.243 125.035 214.869 125.055C215.496 125.035 216.125 125.024 216.757 125.024C246.745 125.024 267.39 148.424 267.733 177.439C267.736 177.683 267.738 177.928 267.738 178.174C267.738 178.636 267.732 179.097 267.719 179.557C267.74 180.363 267.745 181.169 267.734 181.973C267.793 187.099 267.124 192.241 265.633 197.214Z" fill="#F91769"/>
<path d="M193.366 263.155C193.366 256.44 198.594 255.314 201.207 255.314H228.305C230.919 255.314 236.147 256.968 236.147 263.155C236.147 269.343 230.919 270.997 228.305 270.997H201.207C198.594 270.997 193.366 269.871 193.366 263.155Z" fill="#F91769"/>
<path d="M195.98 281.453C195.98 276.976 200.257 276.225 202.396 276.225H227.424C229.563 276.225 233.84 277.328 233.84 281.453C233.84 285.578 229.563 286.68 227.424 286.68H202.396C200.257 286.68 195.98 285.93 195.98 281.453Z" fill="#F91769"/>
<path d="M183.538 200.463C183.036 199.334 183.015 198.225 183.476 197.138L197.528 160.941C197.862 160.147 198.385 159.498 199.096 158.997C199.807 158.495 200.602 158.223 201.48 158.181C202.4 158.014 203.299 158.181 204.177 158.683C205.097 159.143 205.787 159.812 206.247 160.69L210.89 172.233L216.347 185.721L220.676 197.013C221.094 198.1 221.157 199.083 220.864 199.961C220.571 200.797 220.049 201.487 219.296 202.031C218.585 202.575 217.769 202.909 216.849 203.035C215.971 203.119 215.114 202.951 214.277 202.533C213.483 202.115 212.855 201.383 212.395 200.337L208.757 192.057C204.073 191.931 199.431 191.973 194.83 192.182L191.756 200.463C191.213 201.634 190.376 202.428 189.247 202.847C188.16 203.223 187.051 203.223 185.922 202.847C184.835 202.428 184.04 201.634 183.538 200.463ZM198.469 183.211C199.263 183.211 200.225 183.211 201.354 183.211C202.525 183.211 203.864 183.211 205.369 183.211L202.044 174.178L198.469 183.211Z" fill="white"/>
<path d="M231.884 203.223C230.671 203.223 229.626 202.826 228.748 202.031C227.869 201.195 227.409 200.17 227.367 198.957C227.367 197.87 227.702 196.908 228.371 196.072C229.082 195.193 229.96 194.671 231.006 194.503C231.048 187.226 231.027 178.005 230.943 166.838C229.94 166.629 229.103 166.127 228.434 165.333C227.765 164.538 227.43 163.597 227.43 162.51C227.43 161.297 227.869 160.272 228.748 159.436C229.626 158.599 230.671 158.181 231.884 158.181L238.973 158.244C240.186 158.244 241.21 158.683 242.047 159.561C242.883 160.439 243.302 161.485 243.302 162.698C243.302 163.743 242.946 164.663 242.235 165.458C241.566 166.253 240.709 166.754 239.663 166.964C239.789 177.963 239.83 187.08 239.789 194.315C240.834 194.482 241.691 194.963 242.361 195.758C243.072 196.552 243.448 197.473 243.49 198.518C243.49 199.731 243.072 200.776 242.235 201.655C241.441 202.533 240.437 202.993 239.224 203.035L231.884 203.223Z" fill="white"/>
<path d="M118.827 207.892L144.149 254.315C146.629 258.861 146.528 264.377 143.885 268.829C141.242 273.282 136.448 276.011 131.27 276.011H30.6707C25.4929 276.011 20.6985 273.282 18.0554 268.829C15.4123 264.377 15.3119 258.861 17.7914 254.315L46.3114 202.028C47.8415 200.171 52.2189 197.454 60 197.454C65.9691 197.454 68.868 199.554 72.0037 201.826C74.3839 203.551 76.9006 205.375 81 206.454C89.0504 208.572 92.4331 206.741 96.9292 204.307C97.7388 203.869 98.5845 203.411 99.5 202.954C104.3 200.554 110 202.954 113 204.454C115.059 205.277 117.118 206.609 118.827 207.892Z" fill="white"/>
</svg>
