<?xml version="1.0" encoding="UTF-8"?>
<svg width="24" height="24" viewBox="0 0 24 24" fill="none" xmlns="http://www.w3.org/2000/svg">
  <path d="M0 0h1v1H0V0zm1 0h1v1H1V0zm1 0h1v1H2V0zm1 0h1v1H3V0zm1 0h1v1H4V0zm1 0h1v1H5V0zm1 0h1v1H6V0zm1 0h1v1H7V0zm1 0h1v1H8V0zm1 0h1v1H9V0zm1 0h1v1h-1V0zm1 0h1v1h-1V0zm1 0h1v1h-1V0zm1 0h1v1h-1V0zm1 0h1v1h-1V0zm1 0h1v1h-1V0zm1 0h1v1h-1V0zm1 0h1v1h-1V0zm1 0h1v1h-1V0zm1 0h1v1h-1V0zm1 0h1v1h-1V0zm1 0h1v1h-1V0zm1 0h1v1h-1V0zm1 0h1v1h-1V0z" fill="currentColor" fill-opacity="0.1"/>
</svg>